# xmcd
#
# Track frame offsets: 
#        182
#        7112
#        22485
#        41970
#        57935
#        78710
#        80510
#        91985
#        108110
#        120932
#        138985
#        148142
#        161637
#        172887
#        191112
#        204462
#        206790
#        218112
#        228320
#        240982
#        259135
#        265207
#        280952
#        290255
#
# Disc length: 4082 seconds
#
# Revision: 6
# Processed by: cddbd v1.5.2PL0 Copyright (c) Steve Scherf et al.
# Submitted via: ExactAudioCopyFreeDBPlugin 1.0
#
DISCID=650ff018
DTITLE=WIZO - Bleib tapfer | Für'n Arsch
DYEAR=1992
DGENRE=Rock
TTITLE0=Bei Dir
TTITLE1=Mein Tod
TTITLE2=Nice day
TTITLE3=Bleib Tapfer
TTITLE4=Es ist vorbei
TTITLE5=&?#§$)% ?
TTITLE6=Geisterfahrer
TTITLE7=Alte Frau
TTITLE8=Nix and Niemant
TTITLE9=Leichen
TTITLE10=Alter Bruder
TTITLE11=Diese Welt
TTITLE12=U2B ma girl
TTITLE13=Gute Freunde
TTITLE14=Good bye
TTITLE15=Der Käfer
TTITLE16=Kadett B
TTITLE17=K.I.K. III
TTITLE18=Kein Gerede
TTITLE19=Walter
TTITLE20=Jupp
TTITLE21=Selenbrant
TTITLE22=Unemployed
TTITLE23=Sylvia
EXTD=
EXTT0=
EXTT1=
EXTT2=
EXTT3=
EXTT4=
EXTT5=
EXTT6=
EXTT7=
EXTT8=
EXTT9=
EXTT10=
EXTT11=
EXTT12=
EXTT13=
EXTT14=
EXTT15=
EXTT16=
EXTT17=
EXTT18=
EXTT19=
EXTT20=
EXTT21=
EXTT22=
EXTT23=
PLAYORDER=
